# xmcd
# 
# Track frame offsets:
#     150
#     12970
#     28514
#     43705
#     67939
#     83418
#     98452
#     111620
#     130309
#     142038
#     159336
#     175909
# 
# Disc length: 2635
# 
# Revision: 1
# Processed by: cddbd v1.5.2PL0 Copyright (c) Steve Scherf et al.
# Submitted via: fre:ac v1.0.31
# 
DISCID=930a490c
DTITLE=Maggie MacInnes - Port Bàn
DYEAR=2019
DGENRE=Folk
TTITLE0=Caolas eadar mi is Iain
TTITLE1='S iomadh rud a chunnaic mi/ Faca tu saoir an t-sàbhaidh/A chur nan gobhar as a' chreig
TTITLE2=The Bonnie Lass of Albany
TTITLE3=Gràdh geal mo chrìdh
TTITLE4=O Chraobh nan Ùbhal
TTITLE5=Cha teid mise/'N robh thu 'sa bheinn
TTITLE6=Ho mo nighean donn nan gobhar
TTITLE7=The Highland Widow's Lament
TTITLE8=Fhir a chinn duibh
TTITLE9=Bheir mo shoraidh thar Ghunaidh
TTITLE10=Gur muladach sgith mi
TTITLE11=Iain Ghlinn Cuaich
EXTD=
EXTT0=
EXTT1=
EXTT2=
EXTT3=
EXTT4=
EXTT5=
EXTT6=
EXTT7=
EXTT8=
EXTT9=
EXTT10=
EXTT11=
PLAYORDER=
